Coordinates
version=1
nRows=16
nColumns=40
inDegrees=yes

Units are S.I. units (second, meters, Newtons, ...)
If the header above contains a line with 'inDegrees', this indicates whether rotational values are in degrees (yes) or radians (no).

endheader
time	pelvis_tilt	pelvis_list	pelvis_rotation	pelvis_tx	pelvis_ty	pelvis_tz	hip_flexion_r	hip_adduction_r	hip_rotation_r	knee_angle_r	knee_angle_r_beta	ankle_angle_r	subtalar_angle_r	mtp_angle_r	hip_flexion_l	hip_adduction_l	hip_rotation_l	knee_angle_l	knee_angle_l_beta	ankle_angle_l	subtalar_angle_l	mtp_angle_l	lumbar_extension	lumbar_bending	lumbar_rotation	arm_flex_r	arm_add_r	arm_rot_r	elbow_flex_r	pro_sup_r	wrist_flex_r	wrist_dev_r	arm_flex_l	arm_add_l	arm_rot_l	elbow_flex_l	pro_sup_l	wrist_flex_l	wrist_dev_l
      7.32500000	     87.98417366	     56.24315765	     88.45643141	      0.39269919	      0.59692314	      0.80889195	     64.62441049	    -10.31547344	     -6.89525057	     24.69722503	      0.43104789	     -6.08638710	      0.00000000	      0.00000000	     62.57497066	    -15.77022870	    -14.77313064	     24.94274904	      0.43533310	     -3.68661672	      0.00000000	      0.00000000	    -54.91194475	     -8.23288716	     -1.56240754	     69.47262745	     -0.81609723	      8.33460669	      9.99932473	     35.46428755	      0.00000000	      0.00000000	     68.07895317	     -2.04701749	    -18.22419557	     20.58194162	     37.09550323	      0.00000000	      0.00000000
      7.33000000	     87.93817501	     56.12418065	     88.39328519	      0.39256273	      0.59738213	      0.80921610	     64.60897061	    -10.17280003	     -6.73615372	     24.41685273	      0.42615447	     -6.24778174	      0.00000000	      0.00000000	     62.53097748	    -15.83855297	    -14.89978695	     24.70771342	      0.43123095	     -3.84102429	      0.00000000	      0.00000000	    -54.55774800	     -8.27648021	     -1.57967051	     69.78162022	     -0.20812506	      5.93124348	      9.32407697	     32.50471092	      0.00000000	      0.00000000	     69.28934580	     -1.19808363	    -24.62221698	     19.24830557	     34.70167401	      0.00000000	      0.00000000
      7.33500000	     88.04026726	     56.29027990	     88.44354630	      0.39238352	      0.59747029	      0.80995285	     64.34509668	    -10.28093293	     -6.96236705	     24.36107663	      0.42518100	     -6.30177707	      0.00000000	      0.00000000	     62.23780249	    -15.71101890	    -14.79738003	     24.41823134	      0.42617853	     -4.03200207	      0.00000000	      0.00000000	    -54.54449831	     -8.19415795	     -1.52491058	     69.17133908	     -0.45603016	      6.37464906	      9.99014168	     33.54628647	      0.00000000	      0.00000000	     68.56059583	     -1.49540927	    -21.95638742	     19.72020385	     35.51568820	      0.00000000	      0.00000000
      7.34000000	     87.96438097	     56.40127015	     88.37227706	      0.39212240	      0.59796528	      0.81066772	     64.12502740	    -10.14951777	     -6.92317554	     24.16209935	      0.42170819	     -6.43206707	      0.00000000	      0.00000000	     61.95265885	    -15.80824756	    -14.99531016	     24.22441501	      0.42279580	     -4.14363011	      0.00000000	      0.00000000	    -54.46749079	     -8.37969222	     -1.46894159	     69.09353698	     -0.46731833	      6.76139767	      9.71502636	     34.15954867	      0.00000000	      0.00000000	     68.00509550	     -1.73913365	    -20.66017972	     20.15585920	     36.03887209	      0.00000000	      0.00000000
      7.34500000	     87.94204667	     56.49841809	     88.41643683	      0.39191826	      0.59824402	      0.81123930	     63.93097175	    -10.17106352	     -7.01023764	     24.02754428	      0.41935976	     -6.54326434	      0.00000000	      0.00000000	     61.73578870	    -15.76443155	    -14.99371492	     24.01712541	      0.41917792	     -4.31711113	      0.00000000	      0.00000000	    -54.35679912	     -8.41435800	     -1.46580320	     68.75293260	     -0.46083475	      6.97117678	      9.81028462	     34.68977050	      0.00000000	      0.00000000	     67.59209019	     -1.86221935	    -19.82231841	     20.39989176	     36.47253766	      0.00000000	      0.00000000
      7.35000000	     87.95682742	     56.48476231	     88.33756842	      0.39162579	      0.59856555	      0.81163458	     63.86023918	    -10.08414388	     -7.01514034	     23.90370168	      0.41719830	     -6.60467456	      0.00000000	      0.00000000	     61.62642853	    -15.80921640	    -15.01584515	     23.84816248	      0.41622896	     -4.39514756	      0.00000000	      0.00000000	    -54.10326528	     -8.42113620	     -1.45224009	     69.03862019	      0.05356621	      4.10467433	      9.28768100	     32.20153739	      0.00000000	      0.00000000	     68.57075179	     -1.21739117	    -24.96508496	     19.27828810	     34.36447759	      0.00000000	      0.00000000
      7.35500000	     87.92901780	     56.62037701	     88.29336270	      0.39129715	      0.59896862	      0.81223148	     63.65330582	    -10.01803313	     -7.03330413	     23.81363126	      0.41562627	     -6.68010732	      0.00000000	      0.00000000	     61.35861364	    -15.85250416	    -15.09854799	     23.68950936	      0.41345994	     -4.46999221	      0.00000000	      0.00000000	    -54.01619682	     -8.52533889	     -1.39829365	     69.00932249	      0.28478904	      2.39529677	      9.22965580	     30.07098220	      0.00000000	      0.00000000	     68.36320375	     -1.20618798	    -25.01112780	     19.43028467	     32.49330187	      0.00000000	      0.00000000
      7.36000000	     87.96657948	     56.85135481	     88.33714569	      0.39087503	      0.59915453	      0.81287184	     63.35543356	    -10.09176797	     -7.24686855	     23.81495959	      0.41564946	     -6.60424810	      0.00000000	      0.00000000	     61.05337685	    -15.80040051	    -15.06566680	     23.60412388	      0.41196968	     -4.52806978	      0.00000000	      0.00000000	    -54.02571808	     -8.47294468	     -1.40543607	     68.59904928	      0.19885465	      2.99995396	      9.44835079	     31.15399449	      0.00000000	      0.00000000	     67.70957249	     -1.46114336	    -23.32603709	     19.82774386	     33.36882847	      0.00000000	      0.00000000
      7.36500000	     88.09027793	     56.89004877	     88.34274331	      0.39085769	      0.59914591	      0.81316038	     63.25886796	    -10.14288129	     -7.34364363	     23.77061050	      0.41487542	     -6.70298529	      0.00000000	      0.00000000	     60.98224976	    -15.68608111	    -14.75667743	     23.42972853	      0.40892591	     -4.63278500	      0.00000000	      0.00000000	    -53.78542469	     -8.40387042	     -1.25946257	     68.04973022	     -0.03575631	      3.13865162	      9.87457575	     31.91923404	      0.00000000	      0.00000000	     67.16515646	     -1.43177391	    -21.99541914	     20.26592262	     34.02586653	      0.00000000	      0.00000000
      7.37000000	     87.83249870	     57.30982409	     88.27823108	      0.39027850	      0.59987264	      0.81416815	     62.79761051	     -9.93573344	     -7.12756805	     23.66706248	      0.41306816	     -6.72997207	      0.00000000	      0.00000000	     60.35015229	    -15.90032580	    -15.26286179	     23.36146822	      0.40773454	     -4.59300150	      0.00000000	      0.00000000	    -53.99057795	     -8.75239836	     -1.24463494	     68.17457086	      0.10117408	      3.68206234	      9.20313060	     32.45719332	      0.00000000	      0.00000000	     66.87482453	     -1.55962653	    -21.62948369	     20.42562274	     34.51747947	      0.00000000	      0.00000000
      7.37500000	     87.82742503	     57.38800574	     88.27520807	      0.39002429	      0.60014658	      0.81441079	     62.71235948	     -9.91597854	     -7.11898203	     23.69703794	      0.41359133	     -6.73886290	      0.00000000	      0.00000000	     60.22029163	    -15.90369468	    -15.23562353	     23.31459159	      0.40691639	     -4.60160878	      0.00000000	      0.00000000	    -53.78595259	     -8.74795898	     -1.26849407	     68.08360768	      0.33615664	      2.96182816	      9.01112048	     31.52588091	      0.00000000	      0.00000000	     67.28022715	     -1.25601607	    -24.40276866	     19.77430793	     33.79594234	      0.00000000	      0.00000000
      7.38000000	     87.79815796	     57.67465764	     88.28899753	      0.38968157	      0.60036207	      0.81501777	     62.38557453	     -9.91021487	     -7.12538575	     23.68195569	      0.41332810	     -6.67596310	      0.00000000	      0.00000000	     59.84833925	    -15.89871887	    -15.27412935	     23.25244974	      0.40583181	     -4.57668252	      0.00000000	      0.00000000	    -53.82485802	     -8.79165853	     -1.23068157	     67.83175842	      0.26902210	      3.63652096	      8.93818121	     32.16047159	      0.00000000	      0.00000000	     66.72372055	     -1.39703426	    -23.27111277	     20.14332691	     34.35403588	      0.00000000	      0.00000000
      7.38500000	     87.91551527	     58.05309400	     88.34152258	      0.38922261	      0.60038987	      0.81574129	     61.95676027	    -10.03977095	     -7.40882400	     23.76801704	      0.41483015	     -6.52973603	      0.00000000	      0.00000000	     59.42880296	    -15.79263338	    -15.14383210	     23.18661145	      0.40468271	     -4.55891252	      0.00000000	      0.00000000	    -53.96416521	     -8.69128242	     -1.18858904	     67.12478134	     -0.00915903	      4.26157655	      9.73316967	     33.29786117	      0.00000000	      0.00000000	     66.22273977	     -1.68040508	    -21.19507363	     20.30108251	     35.24029566	      0.00000000	      0.00000000
      7.39000000	     87.80985580	     58.16641060	     88.29721909	      0.38901856	      0.60078829	      0.81602104	     61.83507147	     -9.90030308	     -7.15663411	     23.71052257	      0.41382669	     -6.58111249	      0.00000000	      0.00000000	     59.22953188	    -15.89092266	    -15.28841932	     23.16061537	      0.40422900	     -4.55225043	      0.00000000	      0.00000000	    -53.77774378	     -8.79784303	     -1.17584828	     67.43345518	      0.32293209	      3.75814420	      8.80990640	     31.89937512	      0.00000000	      0.00000000	     66.61186358	     -1.29689303	    -24.29567654	     19.75830375	     34.19778890	      0.00000000	      0.00000000
      7.39500000	     87.84942826	     58.44579857	     88.30893821	      0.38861026	      0.60098074	      0.81656963	     61.51096614	     -9.92733490	     -7.24019977	     23.73198407	      0.41420126	     -6.50333441	      0.00000000	      0.00000000	     58.86912083	    -15.85589863	    -15.27585470	     23.06948761	      0.40263852	     -4.51056876	      0.00000000	      0.00000000	    -53.78704392	     -8.77358232	     -1.15957555	     67.12101915	      0.35816200	      3.54282948	      9.05394935	     30.48838022	      0.00000000	      0.00000000	     66.60683920	     -1.24150817	    -24.90056727	     19.58089104	     33.06506790	      0.00000000	      0.00000000
      7.40000000	     87.93589635	     58.81137160	     88.40293597	      0.38824245	      0.60101830	      0.81717563	     61.12343565	    -10.06988427	     -7.46501942	     23.85954183	      0.41642756	     -6.33770520	      0.00000000	      0.00000000	     58.45951096	    -15.73315720	    -15.16976006	     22.99241023	      0.40129326	     -4.49397007	      0.00000000	      0.00000000	    -53.89447482	     -8.67450313	     -1.13084521	     66.46601130	      0.09125055	      4.31515612	      9.68700531	     31.99783579	      0.00000000	      0.00000000	     65.88901332	     -1.58164442	    -22.20121449	     19.93908590	     34.24807316	      0.00000000	      0.00000000
